HIERARCHY
ROOT Hips
{
  OFFSET 0 0 0
  CHANNELS 6 Xposition Yposition Zposition Zrotation Yrotation Xrotation
  JOINT LeftThigh
  {
    OFFSET 8.409438 0 -5.917753
    CHANNELS 3 Zrotation Yrotation Xrotation
    JOINT LeftLeg
    {
      OFFSET 0 0 -42.358652
      CHANNELS 3 Zrotation Yrotation Xrotation
      JOINT LeftFoot
      {
        OFFSET 0 0 -39.357303
        CHANNELS 3 Zrotation Yrotation Xrotation
      }
    }
  }
  JOINT RightThigh
  {
    OFFSET -8.409438 0 -5.917753
    CHANNELS 3 Zrotation Yrotation Xrotation
    JOINT RightLeg
    {
      OFFSET 0 0 -42.358652
      CHANNELS 3 Zrotation Yrotation Xrotation
      JOINT RightFoot
      {
        OFFSET 0 0 -39.357303
        CHANNELS 3 Zrotation Yrotation Xrotation
      }
    }
  }
  JOINT SpineLow
  {
    OFFSET 0 0 4.719101
    CHANNELS 3 Zrotation Yrotation Xrotation
    JOINT SpineMid
    {
      OFFSET 0 0 12.899191
      CHANNELS 3 Zrotation Yrotation Xrotation
      JOINT Chest
      {
        OFFSET 0 0 12.899191
        CHANNELS 3 Zrotation Yrotation Xrotation
        JOINT LeftShoulder
        {
          OFFSET 7.550562 1.41573 9.438202
          CHANNELS 3 Zrotation Yrotation Xrotation
          JOINT LeftArm
          {
            OFFSET 9.155056 0 4.247191
            CHANNELS 3 Zrotation Yrotation Xrotation
            JOINT LeftForearm
            {
              OFFSET 0 0 25.771955
              CHANNELS 3 Zrotation Yrotation Xrotation
              JOINT LeftHand
              {
                OFFSET 0 0 25.197169
                CHANNELS 3 Zrotation Yrotation Xrotation
              }
            }
          }
        }
        JOINT RightShoulder
        {
          OFFSET -7.550562 1.41573 9.438202
          CHANNELS 3 Zrotation Yrotation Xrotation
          JOINT RightArm
          {
            OFFSET -9.155056 0 4.247191
            CHANNELS 3 Zrotation Yrotation Xrotation
            JOINT RightForearm
            {
              OFFSET 0 0 -25.771955
              CHANNELS 3 Zrotation Yrotation Xrotation
              JOINT RightHand
              {
                OFFSET 0 0 -25.197169
                CHANNELS 3 Zrotation Yrotation Xrotation
              }
            }
          }
        }
        JOINT Neck
        {
          OFFSET 0 0 15.101124
          CHANNELS 3 Zrotation Yrotation Xrotation
          JOINT Head
          {
            OFFSET 0 0 11.325843
            CHANNELS 3 Zrotation Yrotation Xrotation
            End Site
            {
              OFFSET 0 0 14.157303
            }
          }
        }
      }
    }
  }
}
MOTION
Frames: 10
Frame Time: 0.0
0.0  93.25843  0.0  81.269287  -47.956629  -157.907307  19.724514  -47.007799  -25.253412  -8.303967  7.109438  20.01193  5.304793  1.412827  5.377261  12.703645  31.057048  -22.745245  10.256819  13.092852  23.850948  4.977694  4.079929  0.556011  1.67132  2.156813  2.222447  4.773542  5.732531  6.235306  4.773542  5.732531  6.235305  -4.810554  30.599161  12.65342  167.574626  60.01807  -156.396099  -29.135244  -10.111808  107.095087  83.100472  -13.412642  -11.603797  22.596588  -6.939001  29.175507  -178.759827  65.279953  122.551678  -5.296695  -34.723226  -125.938713  60.507179  3.589128  -13.139744  22.593283  20.592852  20.539707  16.059384  16.238013  14.466039  
0.0  93.25843  0.0  78.896878  -48.127303  -156.311695  16.403577  -48.900988  -25.746717  -6.829231  10.171913  25.607484  6.506053  1.570798  5.676595  8.847514  29.299099  -24.220094  12.034753  13.200441  24.395191  5.414414  3.955042  0.585884  1.544916  2.105274  2.290492  4.427996  5.599288  6.406813  4.427996  5.599288  6.406813  -5.919219  30.080021  12.177845  169.541134  59.752734  -154.791338  -28.654321  -10.144195  107.301616  83.122959  -13.493979  -11.54996  22.308658  -7.487532  28.573207  -178.929674  66.176601  122.650059  -4.651825  -34.889294  -125.864378  59.951448  3.582346  -13.390403  22.119527  20.270729  20.013106  15.742641  15.959576  14.108905  
0.0  93.25843  0.0  77.745032  -47.843097  -156.493485  15.065814  -49.061182  -25.616895  -6.211801  12.437876  30.779298  7.639511  1.711596  5.938836  6.605858  28.450018  -24.332816  13.192158  13.255501  25.033887  6.257698  4.029551  0.497925  1.602388  2.190888  2.545368  4.616315  5.808895  7.116418  4.616314  5.808895  7.116417  -7.108119  29.064013  11.646315  170.521786  59.676155  -153.530493  -28.408107  -9.901185  107.39271  83.230338  -13.503317  -11.567942  21.699845  -7.993325  27.698487  -179.537099  67.354713  122.42024  -3.448451  -35.257929  -126.054357  59.648084  3.706771  -13.593051  21.246901  19.758805  19.378374  15.141923  15.522233  13.693579  
0.0  93.25843  0.0  77.113695  -47.867261  -156.897883  17.08985  -48.114705  -27.302476  -6.219967  13.84006  36.060131  8.462825  1.729181  6.152993  6.596668  27.902144  -23.415318  13.13628  13.571539  25.601536  6.712398  4.069099  0.309145  1.66149  2.216246  2.756621  4.79932  5.855763  7.702098  4.79932  5.855763  7.702098  -7.55137  28.382706  10.913175  170.784949  59.629332  -152.728184  -28.295744  -9.534804  107.16634  83.338898  -13.71361  -11.375343  21.529369  -7.979523  26.977063  179.415394  68.384993  121.632242  -2.43281  -35.86258  -126.152741  59.300502  3.824261  -13.738971  20.60087  19.44916  18.899911  14.692603  15.25147  13.374622  
0.0  93.25843  0.0  76.398958  -48.084918  -156.547504  21.302324  -46.400809  -30.68104  -6.126789  14.258906  41.568834  8.769631  1.656615  6.308083  7.73559  27.333925  -22.170403  12.609423  14.059688  25.893137  6.693465  4.187495  0.193698  1.61346  2.196371  2.773276  4.66687  5.806006  7.741869  4.66687  5.806006  7.741869  -6.975435  28.168419  10.36543  170.497759  59.737525  -152.347909  -28.013388  -9.322007  107.090673  83.456701  -13.624444  -11.376722  21.921425  -7.719706  26.714563  177.861119  69.028382  120.059655  -1.863815  -36.657749  -126.078849  58.862998  3.881262  -13.738862  20.518446  19.331801  18.732574  14.642415  15.154847  13.258844  
0.0  93.25843  0.0  74.58738  -48.237376  -154.640601  26.129858  -44.344192  -35.190449  -5.890761  14.114921  47.112167  8.546594  1.591952  6.432367  8.429605  26.727964  -21.435307  12.238651  14.262268  26.151409  5.861622  4.157349  0.160881  1.406092  2.117563  2.61645  4.076731  5.625672  7.288676  4.07673  5.625672  7.288675  -6.041391  28.401121  10.025206  170.072007  59.961101  -152.150251  -27.828162  -9.206744  106.777856  83.516569  -13.729161  -11.264463  22.508216  -7.362491  26.706775  175.62048  69.323824  117.555949  -1.678255  -37.536192  -125.843274  58.453813  3.92502  -13.636453  20.796978  19.385668  18.775196  14.8455  15.20577  13.27907  
0.0  93.25843  0.0  72.417102  -48.1877  -152.716199  30.749331  -42.148108  -39.100654  -6.026242  13.775655  52.390355  7.598231  1.664869  6.416964  9.206034  26.280511  -20.358195  11.935826  14.157582  26.458831  5.242339  4.313761  0.135268  1.252256  2.060182  2.519354  3.641272  5.491824  7.006075  3.641272  5.491824  7.006075  -5.834486  28.710621  9.713821  170.042366  60.411054  -151.677761  -27.626141  -9.069429  106.598125  83.525181  -13.670409  -11.206814  22.5866  -7.182212  26.523216  173.102136  69.520097  114.747003  -1.624302  -38.33588  -125.540133  58.08821  3.981312  -13.439552  20.825478  19.40011  18.73577  14.867192  15.216135  13.248103  
0.0  93.25843  0.0  70.137304  -48.083689  -150.924917  34.434627  -40.029052  -41.939303  -6.310868  13.444411  57.353644  6.163975  1.866215  6.220322  10.103246  25.830558  -18.994496  11.614392  13.952404  26.707283  5.139463  4.538017  0.260365  1.151157  2.033008  2.485165  3.358898  5.430299  6.902501  3.358898  5.4303  6.902501  -6.098149  28.874741  9.336917  171.354317  59.984839  -150.779923  -26.773843  -9.000439  107.095767  83.403203  -13.81358  -11.017765  22.44691  -7.201003  26.070892  170.591682  69.853331  112.117519  -1.438548  -38.993276  -125.319754  57.643185  3.968849  -13.188388  20.702635  19.360376  18.546269  14.783734  15.175671  13.113062  
0.0  93.25843  0.0  67.652341  -47.788926  -149.034794  36.7386  -37.875318  -43.721997  -6.733443  13.345584  61.98219  4.698372  2.276094  5.897584  10.743812  25.349925  -17.577967  11.138206  13.807246  26.818077  4.619543  4.619542  0.269089  1.077237  2.021938  2.438161  3.151674  5.410222  6.767161  3.151674  5.410222  6.767161  -6.413774  28.892785  9.244413  171.900073  60.366485  -149.769644  -26.502048  -8.554505  106.746742  83.241133  -13.812682  -10.882508  22.116662  -7.413815  25.852891  168.220533  70.381701  109.847306  -0.810539  -39.548346  -125.391268  57.2901  3.986941  -12.820862  20.534749  19.206267  18.437349  14.669895  15.050824  13.045225  
0.0  93.25843  0.0  65.145254  -47.366441  -147.391901  37.959408  -35.596504  -44.392191  -7.476272  13.723869  66.189398  3.653347  2.797692  5.515953  11.10461  24.70735  -16.01858  10.758341  13.754165  26.816134  4.399859  4.694374  0.214196  1.023187  2.005602  2.432986  3.001635  5.371464  6.747704  3.001635  5.371464  6.747704  -6.645199  28.880087  9.324567  172.575066  60.511265  -148.506584  -26.246849  -7.975343  106.140682  83.006607  -14.051184  -10.59835  21.721639  -7.60007  25.718702  165.939772  71.02652  107.812859  0.033894  -40.011624  -125.628509  57.008535  4.056517  -12.571398  20.368182  19.046828  18.352459  14.556436  14.922914  12.995354  
